<?xml version="1.0" encoding="utf-8"?>
<!-- Generator: Adobe Illustrator 16.0.0, SVG Export Plug-In . SVG Version: 6.00 Build 0)  -->
<!DOCTYPE svg PUBLIC "-//W3C//DTD SVG 1.1//EN" "http://www.w3.org/Graphics/SVG/1.1/DTD/svg11.dtd">
<svg version="1.1" id="Layer_1" xmlns="http://www.w3.org/2000/svg" xmlns:xlink="http://www.w3.org/1999/xlink" x="0px" y="0px"
	 width="1374px" height="478px" viewBox="0 0 1374 478" enable-background="new 0 0 1374 478" xml:space="preserve">
<g>
	<path fill-rule="evenodd" clip-rule="evenodd" fill="#3FBCC8" d="M211.454,437.025c-0.97-0.268-1.94-0.534-3.1-0.853
		c0-46.754,0-93.591,0-140.758c0.954-0.092,1.939-0.261,2.925-0.27c6-0.052,11.999-0.08,17.998-0.087
		c9.188-0.013,18.376-0.004,27.566-0.004c1.007,0,2.014,0,3.16,0c0.1-1.033,0.23-1.753,0.23-2.475
		c0.01-28.879,0.014-57.758,0.003-86.635c-0.001-4.125-0.021-8.251-0.121-12.373c-0.1-4.093,1.393-7.372,4.307-10.273
		c26.452-26.321,52.843-52.704,79.257-79.063c0.991-0.989,2.032-1.927,3.226-3.056c1.316,1.189,2.601,2.257,3.781,3.43
		c15.647,15.511,31.245,31.073,46.946,46.53c2.87,2.825,4.178,5.921,4.164,9.975c-0.084,23.721-0.037,47.441,0.03,71.164
		c0.078,27.093,0.154,54.188,0.403,81.28c0.042,4.479-1.383,7.86-4.533,10.972c-11.537,11.4-22.933,22.944-34.367,34.449
		c-24.454,24.604-48.917,49.198-73.319,73.857c-2.608,2.636-5.398,3.891-9.193,3.86c-18.655-0.146-37.314-0.073-55.971-0.05
		c-1.088,0.002-2.176,0.247-3.265,0.378C218.207,437.025,214.831,437.025,211.454,437.025z"/>
	<path fill-rule="evenodd" clip-rule="evenodd" fill="#3FBCC8" d="M3.814,157.359c8.112-8.271,16.199-16.565,24.34-24.806
		c9.553-9.67,19.148-19.297,28.737-28.934c0.653-0.655,1.396-1.221,2.322-2.02c1.381,1.228,2.746,2.329,3.98,3.561
		c11.683,11.65,23.34,23.33,35.013,34.992c14.724,14.71,29.4,29.468,44.231,44.07c2.918,2.874,4.082,5.986,4.068,9.992
		c-0.114,32.343-0.119,64.687-0.157,97.031c-0.001,1.109,0,2.22,0,3.73c4.489,0.153,8.763,0.058,13.032,0.076
		c4.219,0.015,8.438,0.003,12.656,0.003c4.313,0,8.626,0,12.939,0c4.196,0,8.393,0,12.754,0c0,47.241,0,94.17,0,141.14
		c-0.87,0.278-1.732,0.555-2.593,0.831c-24.197,0-48.394,0-72.59,0c-1.89-1.502-3.892-2.882-5.645-4.529
		c-3.279-3.082-6.416-6.314-9.607-9.487C74.304,390.23,41.328,357.441,8.299,324.7c-2.445-2.425-3.482-5.101-3.49-8.515
		c-0.049-20.813-0.217-41.623-0.339-62.435c-0.057-9.562-0.083-19.125-0.168-28.688c-0.009-0.999-0.317-1.996-0.488-2.993
		C3.814,200.499,3.814,178.93,3.814,157.359z"/>
	<path fill-rule="evenodd" clip-rule="evenodd" fill="#3FBCC8" d="M284.044,39.19c2.437,2.143,4.99,4.17,7.292,6.451
		c15.184,15.042,30.316,30.136,45.458,45.222c0.921,0.918,1.78,1.899,2.781,2.973c-0.522,0.68-0.917,1.285-1.4,1.804
		c-1.277,1.372-2.574,2.727-3.899,4.054c-23.926,23.933-47.858,47.861-71.787,71.794c-2.054,2.056-4.141,4.081-6.116,6.211
		c-2.459,2.649-5.419,3.735-9.031,3.719c-22.592-0.099-45.183-0.116-67.775-0.135c-6.843-0.007-13.686-0.013-20.527,0.135
		c-3.894,0.083-6.972-1.158-9.771-3.975c-26.625-26.802-53.342-53.514-80.025-80.259c-1.047-1.048-2.034-2.154-3.136-3.327
		c0.44-0.503,0.715-0.859,1.032-1.174c13.9-13.805,27.809-27.6,41.704-41.411c2.725-2.708,5.437-5.433,8.088-8.216
		c2.274-2.388,4.954-3.427,8.278-3.416c16.217,0.056,32.435,0.001,48.653-0.045c1.088-0.003,2.177-0.265,3.265-0.405
		C212.768,39.19,248.405,39.19,284.044,39.19z"/>
	<path fill-rule="evenodd" clip-rule="evenodd" fill="#3FBCC8" d="M1372.328,152.293c-10.342,17.802-20.668,35.613-31.027,53.404
		c-10.184,17.492-20.358,34.987-30.633,52.426c-2.36,4.007-3.497,8.188-3.47,12.822c0.098,16.495,0.099,32.994,0.137,49.492
		c0.003,1.111,0,2.224,0,3.664c-6.537,0.544-12.859,0.297-19.457,0.152c-0.09-0.971-0.229-1.77-0.229-2.571
		c-0.012-17.06-0.055-34.118,0.029-51.176c0.019-3.983-0.989-7.519-3.008-10.927c-20.007-33.781-39.97-67.589-59.931-101.398
		c-1.265-2.141-2.409-4.35-3.731-6.751c0.806-0.113,1.155-0.206,1.507-0.206c5.343,0.001,10.685,0.076,16.026-0.007
		c1.823-0.029,3.041,0.705,3.979,2.131c0.669,1.017,1.329,2.041,1.972,3.075c16.185,26.132,32.362,52.267,48.55,78.396
		c1.28,2.066,2.627,4.093,4.202,6.544c0.771-1.105,1.415-1.941,1.967-2.837c7.646-12.46,15.308-24.91,22.911-37.394
		c8.919-14.646,17.789-29.323,26.685-43.982c0.534-0.88,1.085-1.755,1.674-2.597c1.688-2.4,3.985-3.589,6.946-3.543
		c4.966,0.078,9.935,0.108,14.9,0.159C1372.328,151.544,1372.328,151.919,1372.328,152.293z"/>
	<path fill-rule="evenodd" clip-rule="evenodd" fill="#3FBCC8" d="M889.061,151.135c5.987,0,11.887,0.009,17.786-0.006
		c1.726-0.005,2.678,1.078,3.599,2.328c8.508,11.548,17.03,23.083,25.551,34.622c23.836,32.279,47.672,64.558,71.513,96.832
		c1.249,1.692,2.401,3.498,4.743,4.866c0-46.24,0-92.022,0-138.008c6.522,0,12.74,0,19.203,0c0.115,2.435,0.311,4.759,0.322,7.084
		c0.222,41.252,0.466,82.505,0.596,123.759c0.039,12.372-0.255,24.747-0.394,37.119c-0.015,1.304-0.001,2.606-0.001,4.17
		c-1.508,0.199-2.772,0.496-4.039,0.511c-4.594,0.054-9.189-0.031-13.779,0.03c-2.065,0.026-3.229-1.132-4.334-2.633
		c-6.99-9.522-14.006-19.025-21.029-28.523c-25.588-34.597-51.181-69.189-76.777-103.778c-1.045-1.411-2.146-2.777-3.469-4.484
		c-0.351,0.867-0.653,1.312-0.699,1.784c-0.09,0.93-0.04,1.873-0.04,2.81c0,43.507,0,87.016,0,130.524c0,1.199,0,2.397,0,3.732
		c-6.472,0-12.628,0-18.757,0C887.547,318.634,887.489,157.807,889.061,151.135z"/>
	<path fill-rule="evenodd" clip-rule="evenodd" fill="#3FBCC8" d="M780.243,236.465c-0.243,12.422-2.17,24.389-6.908,35.804
		c-6.77,16.319-18.056,28.771-32.88,38.149c-11.22,7.099-23.246,12.184-36.517,13.801c-37.335,4.552-68.159-6.858-90.362-37.986
		c-12.174-17.066-16.652-36.442-14.589-57.319c3.267-33.047,26.21-64.089,64.085-74.691c27.177-7.606,53.206-4.338,77.164,11.035
		c15.427,9.898,27.276,23.088,34.242,40.295C778.511,215.506,780.143,225.915,780.243,236.465z M760.188,237.658
		c-0.678-5.003-0.971-10.094-2.098-14.993c-4.909-21.306-17.697-36.457-37.132-46.041c-12.461-6.144-25.808-8.761-39.592-7.232
		c-17.157,1.902-32.066,9.1-43.853,21.847c-16.026,17.331-22.388,37.781-17.143,60.979c8.894,39.335,48.697,62.953,87.62,52.473
		C738.671,296.426,759.88,269.014,760.188,237.658z"/>
	<path fill-rule="evenodd" clip-rule="evenodd" fill="#3FBCC8" d="M1104.939,227.524c28.963,0,57.621,0,86.44,0
		c0.089,0.97,0.21,1.69,0.213,2.413c0.019,4.125,0.019,8.25,0.005,12.377c-0.009,2.999-0.248,3.249-3.146,3.291
		c-2.53,0.038-5.063,0.049-7.593,0.051c-24.004,0.019-48.007,0.033-72.011,0.049c-1.107,0-2.216,0-3.229,0
		c-1.437,4.541-1.776,54.602-0.394,60.042c16.553,0,33.206,0,49.86,0c16.583,0,33.166,0,50.005,0
		c0.48,6.066,0.214,11.924,0.16,17.737c-2.148,0.59-114.887,0.81-119.827,0.241c-0.074-0.929-0.212-1.916-0.229-2.91
		c-0.179-10.589-0.426-21.182-0.486-31.772c-0.172-29.814-0.33-59.627-0.365-89.441c-0.017-14.717,0.254-29.435,0.404-44.152
		c0.012-1.099,0.116-2.197,0.173-3.221c5.958-1.42,110.479-1.691,116.658-0.327c0,5.638,0,11.309,0,17.315
		c-32.252,0-64.356,0-96.639,0C1104.939,188.727,1104.939,207.901,1104.939,227.524z"/>
	<path fill-rule="evenodd" clip-rule="evenodd" fill="#3FBCC8" d="M448.651,151.628c6.402,0,12.729,0,19.403,0
		c0,32.994,0,65.831,0,98.667c0.185,0.077,0.372,0.154,0.558,0.233c1.374-1.351,2.808-2.646,4.113-4.059
		c26.409-28.581,52.802-57.178,79.202-85.768c2.036-2.205,4.05-4.432,6.152-6.571c1.908-1.943,4.227-3.078,7.02-3.065
		c5.625,0.024,11.251,0.04,16.876,0.074c0.364,0.002,0.728,0.112,1.068,0.169c0.752,1.38-0.454,1.923-1.071,2.606
		c-5.657,6.262-11.353,12.49-17.037,18.728c-15.79,17.329-31.58,34.656-47.368,51.987c-0.503,0.552-0.984,1.124-1.716,1.963
		c24.331,32.156,48.674,64.329,73.205,96.751c-0.896,0.372-1.456,0.799-2.021,0.811c-6.469,0.121-12.938,0.201-19.406,0.244
		c-1.99,0.011-3.205-1.313-4.325-2.768c-4.351-5.645-8.725-11.269-13.09-16.902c-14.819-19.12-29.633-38.243-44.464-57.354
		c-1.479-1.906-3.061-3.732-4.419-5.383c-3.746,4.245-7.295,8.345-10.928,12.37c-6.285,6.96-12.555,13.935-18.972,20.771
		c-2.413,2.567-3.454,5.363-3.424,8.862c0.105,12.19,0.041,24.381,0.041,36.572c0,1.014,0,2.026,0,3.242c-6.55,0-12.873,0-19.398,0
		C448.651,266.468,448.651,209.139,448.651,151.628z"/>
	<path fill-rule="evenodd" clip-rule="evenodd" fill="#3FBCC8" d="M816.135,152.171c4.537-1.332,14.394-1.472,18.991-0.256
		c0,57.183,0,114.421,0,171.854c-6.306,0-12.543,0-18.784,0C815.798,321.825,815.575,156.883,816.135,152.171z"/>
</g>
</svg>
